<svg width="1000" height="1000" viewBox="0 0 1000 1000" xmlns="http://www.w3.org/2000/svg"><defs/><path fill="#ffffff" d="M 0 0 L 1000 0 L 1000 1000 L 0 1000 Z"/><path transform="matrix(1.1125388750660943 0 0 1.1125388750660943 -0.7436870223347994 -1.1591504131807708)" d="M 450.09095703967 615.26864585222 C 317.89095703967 615.26864585222 210.39095703967 507.76864585222 210.39095703967 375.56864585222 C 210.39095703967 243.36864585222 317.89095703967 135.86864585222 450.09095703967 135.86864585222 C 582.29095703967 135.86864585222 689.79095703967 243.36864585222 689.79095703967 375.56864585222 C 689.79095703967 507.76864585222 582.29095703967 615.26864585222 450.09095703967 615.26864585222 Z M 450.09095703967 143.26864585222 C 321.99095703967 143.26864585222 217.79095703967 247.46864585222 217.79095703967 375.56864585222 C 217.79095703967 503.66864585222 321.99095703967 607.86864585222 450.09095703967 607.86864585222 C 578.19095703967 607.86864585222 682.39095703967 503.66864585222 682.39095703967 375.56864585222 C 682.39095703967 247.46864585222 578.19095703967 143.26864585222 450.09095703967 143.26864585222 Z"/><path transform="matrix(1.1125388750660943 0 0 1.1125388750660943 -0.7436870223347994 -1.1591504131807708)" d="M 450.09095703967 595.46864585222 C 328.89095703967 595.46864585222 230.19095703967 496.86864585222 230.19095703967 375.56864585222 C 230.19095703967 254.36864585222 328.79095703967 155.66864585222 450.09095703967 155.66864585222 C 571.29095703967 155.66864585222 669.99095703967 254.26864585222 669.99095703967 375.56864585222 C 669.99095703967 496.76864585222 571.29095703967 595.46864585222 450.09095703967 595.46864585222 Z M 450.09095703967 159.46864585222 C 330.89095703967 159.46864585222 233.99095703967 256.46864585222 233.99095703967 375.56864585222 C 233.99095703967 494.66864585222 330.99095703967 591.66864585222 450.09095703967 591.66864585222 C 569.19095703967 591.66864585222 666.19095703967 494.66864585222 666.19095703967 375.56864585222 C 666.19095703967 256.46864585222 569.29095703967 159.46864585222 450.09095703967 159.46864585222 Z"/><path transform="matrix(1.1125388750660943 0 0 1.1125388750660943 -0.7436870223347994 -1.1591504131807708)" d="M 436.79095703967 290.16864585222 C 436.09095703967 290.16864585222 435.39095703967 289.76864585222 435.09095703967 289.06864585222 C 434.69095703967 288.16864585222 435.09095703967 287.06864585222 435.99095703967 286.56864585222 C 442.29095703967 283.56864585222 449.09095703967 276.56864585222 449.19095703967 269.46864585222 C 449.19095703967 266.26864585222 447.89095703967 263.26864585222 445.99095703967 260.76864585222 C 439.89095703967 262.86864585222 433.69095703967 264.86864585222 427.49095703967 266.56864585222 C 413.69095703967 270.46864585222 373.89095703967 281.56864585222 359.59095703967 263.76864585222 C 349.99095703967 265.96864585222 340.29095703967 267.66864585222 330.49095703967 268.26864585222 C 325.59095703967 268.56864585222 320.39095703967 268.56864585222 315.59095703967 266.96864585222 C 309.99095703967 265.06864585222 305.79095703967 260.76864585222 304.59095703967 255.96864585222 C 303.29095703967 250.86864585222 305.29095703967 245.06864585222 309.59095703967 240.66864585222 C 322.89095703967 227.26864585222 344.29095703967 226.06864585222 365.39095703967 228.56864585222 C 381.39095703967 214.86864585222 408.49095703967 216.06864585222 444.49095703967 231.86864585222 C 463.59095703967 225.96864585222 483.09095703967 221.86864585222 503.19095703967 222.46864585222 C 516.09095703967 222.86864585222 526.19095703967 225.76864585222 533.19095703967 231.16864585222 C 545.79095703967 229.86864585222 558.59095703967 230.16864585222 571.69095703967 233.06864585222 C 579.09095703967 234.66864585222 589.59095703967 237.76864585222 595.99095703967 245.86864585222 C 600.69095703967 251.76864585222 602.49095703967 259.66864585222 600.89095703967 267.06864585222 C 598.89095703967 275.96864585222 592.29095703967 282.96864585222 583.19095703967 285.56864585222 C 573.59095703967 288.36864585222 563.29095703967 285.86864585222 556.49095703967 279.06864585222 C 555.79095703967 278.36864585222 555.79095703967 277.16864585222 556.49095703967 276.46864585222 C 557.19095703967 275.76864585222 558.39095703967 275.76864585222 559.09095703967 276.46864585222 C 564.99095703967 282.36864585222 573.79095703967 284.46864585222 582.09095703967 282.06864585222 C 589.89095703967 279.76864585222 595.49095703967 273.86864585222 597.19095703967 266.26864585222 C 598.59095703967 260.06864585222 596.99095703967 253.06864585222 592.99095703967 248.16864585222 C 587.29095703967 241.06864585222 577.59095703967 238.16864585222 570.79095703967 236.66864585222 C 559.29095703967 234.16864585222 547.99095703967 233.66864585222 536.89095703967 234.56864585222 C 538.29095703967 236.06864585222 539.49095703967 237.66864585222 540.49095703967 239.36864585222 C 544.39095703967 245.86864585222 545.09095703967 256.16864585222 538.59095703967 262.26864585222 C 533.29095703967 267.26864585222 524.69095703967 268.36864585222 513.09095703967 265.76864585222 C 499.49095703967 262.56864585222 486.69095703967 256.86864585222 474.19095703967 250.76864585222 C 471.49095703967 251.76864585222 468.79095703967 252.76864585222 466.09095703967 253.76864585222 C 460.69095703967 255.76864585222 455.09095703967 257.76864585222 449.59095703967 259.76864585222 C 451.79095703967 263.06864585222 452.89095703967 266.46864585222 452.89095703967 269.76864585222 C 452.79095703967 278.46864585222 445.09095703967 286.56864585222 437.59095703967 290.16864585222 C 437.29095703967 290.16864585222 437.09095703967 290.16864585222 436.79095703967 290.16864585222 Z M 363.69095703967 262.96864585222 C 372.99095703967 272.16864585222 393.99095703967 272.26864585222 426.49095703967 263.16864585222 C 432.09095703967 261.56864585222 437.79095703967 259.76864585222 443.39095703967 257.86864585222 C 442.69095703967 257.16864585222 441.89095703967 256.46864585222 441.19095703967 255.86864585222 C 434.89095703967 250.66864585222 427.69095703967 246.96864585222 419.99095703967 244.26864585222 C 417.19095703967 245.26864585222 414.49095703967 246.26864585222 411.69095703967 247.26864585222 C 395.99095703967 252.96864585222 379.99095703967 258.76864585222 363.69095703967 262.96864585222 Z M 349.09095703967 231.26864585222 C 334.59095703967 231.26864585222 321.19095703967 234.26864585222 312.19095703967 243.36864585222 C 309.49095703967 246.06864585222 306.99095703967 250.66864585222 308.09095703967 255.16864585222 C 308.99095703967 258.86864585222 312.29095703967 262.06864585222 316.69095703967 263.56864585222 C 320.89095703967 265.06864585222 325.69095703967 264.96864585222 330.19095703967 264.66864585222 C 339.29095703967 264.06864585222 348.39095703967 262.66864585222 357.39095703967 260.56864585222 C 357.09095703967 259.96864585222 356.79095703967 259.36864585222 356.49095703967 258.66864585222 C 353.19095703967 250.76864585222 354.69095703967 240.76864585222 360.29095703967 233.76864585222 C 360.79095703967 233.06864585222 361.39095703967 232.46864585222 361.99095703967 231.76864585222 C 357.59095703967 231.46864585222 353.29095703967 231.26864585222 349.09095703967 231.26864585222 Z M 479.09095703967 248.96864585222 C 490.29095703967 254.46864585222 501.89095703967 259.36864585222 513.99095703967 262.16864585222 C 524.29095703967 264.56864585222 531.69095703967 263.66864585222 536.09095703967 259.56864585222 C 540.99095703967 254.96864585222 540.59095703967 246.66864585222 537.39095703967 241.26864585222 C 535.99095703967 238.96864585222 534.19095703967 236.86864585222 532.09095703967 235.06864585222 C 513.99095703967 237.16864585222 496.39095703967 242.76864585222 479.09095703967 248.96864585222 Z M 366.59095703967 232.46864585222 C 365.39095703967 233.56864585222 364.29095703967 234.86864585222 363.19095703967 236.16864585222 C 358.49095703967 242.06864585222 357.19095703967 250.76864585222 359.89095703967 257.36864585222 C 360.29095703967 258.16864585222 360.69095703967 258.96864585222 361.09095703967 259.76864585222 C 377.79095703967 255.66864585222 394.19095703967 249.66864585222 410.29095703967 243.76864585222 C 411.59095703967 243.26864585222 412.89095703967 242.86864585222 414.19095703967 242.36864585222 C 406.59095703967 240.06864585222 398.59095703967 238.46864585222 390.79095703967 236.86864585222 L 386.39095703967 235.96864585222 C 380.09095703967 234.56864585222 373.39095703967 233.36864585222 366.59095703967 232.46864585222 Z M 425.19095703967 242.26864585222 C 431.79095703967 244.96864585222 437.99095703967 248.36864585222 443.49095703967 252.96864585222 C 444.89095703967 254.16864585222 446.09095703967 255.26864585222 447.19095703967 256.56864585222 C 453.09095703967 254.46864585222 459.09095703967 252.36864585222 464.89095703967 250.16864585222 C 466.49095703967 249.56864585222 468.09095703967 248.96864585222 469.69095703967 248.36864585222 C 467.79095703967 247.46864585222 465.99095703967 246.46864585222 464.19095703967 245.56864585222 C 460.49095703967 243.66864585222 456.89095703967 241.86864585222 453.19095703967 239.96864585222 C 450.19095703967 238.46864585222 447.19095703967 237.06864585222 444.29095703967 235.76864585222 C 437.89095703967 237.86864585222 431.49095703967 240.06864585222 425.19095703967 242.26864585222 Z M 449.59095703967 234.26864585222 C 451.29095703967 235.06864585222 452.99095703967 235.86864585222 454.69095703967 236.76864585222 C 458.39095703967 238.56864585222 462.09095703967 240.46864585222 465.79095703967 242.36864585222 C 468.69095703967 243.86864585222 471.49095703967 245.26864585222 474.39095703967 246.76864585222 C 491.69095703967 240.46864585222 509.29095703967 234.66864585222 527.39095703967 231.96864585222 C 521.19095703967 228.46864585222 513.09095703967 226.56864585222 502.99095703967 226.26864585222 C 484.99095703967 225.66864585222 467.09095703967 229.16864585222 449.59095703967 234.26864585222 Z M 370.59095703967 229.26864585222 C 376.29095703967 230.06864585222 381.89095703967 231.16864585222 387.19095703967 232.26864585222 L 391.59095703967 233.16864585222 C 400.79095703967 235.06864585222 410.59095703967 237.06864585222 419.89095703967 240.26864585222 C 426.29095703967 237.96864585222 432.69095703967 235.66864585222 439.19095703967 233.56864585222 C 408.49095703967 220.86864585222 385.19095703967 219.36864585222 370.59095703967 229.26864585222 Z"/><path transform="matrix(1.1125388750660943 0 0 1.1125388750660943 -0.7436870223347994 -1.1591504131807708)" d="M 398.49095703967 530.96864585222 C 386.59095703967 530.96864585222 376.79095703967 527.76864585222 369.39095703967 521.46864585222 C 348.29095703967 523.96864585222 326.89095703967 522.66864585222 313.59095703967 509.36864585222 C 309.19095703967 504.96864585222 307.29095703967 499.06864585222 308.59095703967 494.06864585222 C 309.79095703967 489.16864585222 313.99095703967 484.96864585222 319.59095703967 483.06864585222 C 324.39095703967 481.36864585222 329.59095703967 481.46864585222 334.49095703967 481.76864585222 C 344.29095703967 482.36864585222 353.99095703967 483.96864585222 363.59095703967 486.26864585222 C 377.89095703967 468.46864585222 417.69095703967 479.66864585222 431.49095703967 483.46864585222 C 437.69095703967 485.16864585222 443.89095703967 487.16864585222 449.99095703967 489.26864585222 C 451.89095703967 486.76864585222 453.19095703967 483.76864585222 453.19095703967 480.56864585222 C 453.09095703967 473.46864585222 446.29095703967 466.46864585222 439.99095703967 463.46864585222 C 439.09095703967 463.06864585222 438.69095703967 461.96864585222 439.09095703967 460.96864585222 C 439.49095703967 460.06864585222 440.59095703967 459.66864585222 441.59095703967 460.06864585222 C 449.09095703967 463.66864585222 456.79095703967 471.76864585222 456.89095703967 480.46864585222 C 456.89095703967 483.86864585222 455.79095703967 487.16864585222 453.59095703967 490.46864585222 C 459.19095703967 492.46864585222 464.69095703967 494.46864585222 470.19095703967 496.46864585222 C 472.89095703967 497.46864585222 475.59095703967 498.46864585222 478.29095703967 499.46864585222 C 490.69095703967 493.26864585222 503.59095703967 487.56864585222 517.19095703967 484.46864585222 C 528.79095703967 481.76864585222 537.39095703967 482.96864585222 542.69095703967 487.96864585222 C 549.19095703967 494.06864585222 548.49095703967 504.36864585222 544.59095703967 510.86864585222 C 543.59095703967 512.56864585222 542.39095703967 514.16864585222 540.99095703967 515.66864585222 C 552.09095703967 516.56864585222 563.39095703967 516.06864585222 574.89095703967 513.56864585222 C 581.69095703967 512.06864585222 591.39095703967 509.26864585222 597.09095703967 502.06864585222 C 601.09095703967 497.06864585222 602.69095703967 490.16864585222 601.29095703967 483.96864585222 C 599.59095703967 476.36864585222 593.99095703967 470.46864585222 586.19095703967 468.16864585222 C 577.89095703967 465.76864585222 568.99095703967 467.86864585222 563.19095703967 473.76864585222 C 562.49095703967 474.46864585222 561.29095703967 474.46864585222 560.59095703967 473.76864585222 C 559.89095703967 473.06864585222 559.89095703967 471.86864585222 560.59095703967 471.16864585222 C 567.39095703967 464.36864585222 577.69095703967 461.76864585222 587.29095703967 464.66864585222 C 596.39095703967 467.36864585222 602.99095703967 474.26864585222 604.99095703967 483.16864585222 C 606.59095703967 490.56864585222 604.79095703967 498.46864585222 600.09095703967 504.36864585222 C 593.69095703967 512.46864585222 583.09095703967 515.56864585222 575.79095703967 517.16864585222 C 562.69095703967 520.06864585222 549.89095703967 520.36864585222 537.29095703967 519.06864585222 C 530.29095703967 524.46864585222 520.19095703967 527.36864585222 507.29095703967 527.76864585222 C 487.29095703967 528.36864585222 467.69095703967 524.26864585222 448.59095703967 518.36864585222 C 429.09095703967 526.66864585222 412.29095703967 530.96864585222 398.49095703967 530.96864585222 Z M 374.59095703967 520.76864585222 C 389.19095703967 530.66864585222 412.49095703967 529.16864585222 443.09095703967 516.36864585222 C 436.59095703967 514.26864585222 430.19095703967 511.96864585222 423.79095703967 509.66864585222 C 414.49095703967 512.86864585222 404.69095703967 514.86864585222 395.49095703967 516.76864585222 L 391.09095703967 517.66864585222 C 385.89095703967 518.86864585222 380.29095703967 519.96864585222 374.59095703967 520.76864585222 Z M 453.69095703967 515.76864585222 C 471.19095703967 520.86864585222 488.99095703967 524.36864585222 507.09095703967 523.76864585222 C 517.19095703967 523.46864585222 525.39095703967 521.56864585222 531.59095703967 518.06864585222 C 513.49095703967 515.46864585222 495.89095703967 509.56864585222 478.59095703967 503.26864585222 C 475.69095703967 504.66864585222 472.79095703967 506.16864585222 469.99095703967 507.66864585222 C 466.29095703967 509.56864585222 462.59095703967 511.46864585222 458.89095703967 513.26864585222 C 457.09095703967 514.16864585222 455.39095703967 514.96864585222 453.69095703967 515.76864585222 Z M 329.89095703967 485.16864585222 C 326.79095703967 485.16864585222 323.69095703967 485.46864585222 320.79095703967 486.46864585222 C 316.39095703967 487.96864585222 313.09095703967 491.26864585222 312.19095703967 494.86864585222 C 311.09095703967 499.46864585222 313.59095703967 503.96864585222 316.29095703967 506.66864585222 C 327.89095703967 518.36864585222 346.89095703967 519.96864585222 365.99095703967 518.06864585222 C 365.39095703967 517.46864585222 364.89095703967 516.76864585222 364.29095703967 516.06864585222 C 358.79095703967 509.06864585222 357.29095703967 499.06864585222 360.49095703967 491.16864585222 C 360.79095703967 490.56864585222 361.09095703967 489.86864585222 361.39095703967 489.26864585222 C 352.39095703967 487.26864585222 343.39095703967 485.76864585222 334.19095703967 485.16864585222 C 332.79095703967 485.26864585222 331.29095703967 485.16864585222 329.89095703967 485.16864585222 Z M 365.19095703967 490.26864585222 C 364.69095703967 491.06864585222 364.29095703967 491.86864585222 363.99095703967 492.66864585222 C 361.29095703967 499.16864585222 362.59095703967 507.96864585222 367.29095703967 513.86864585222 C 368.39095703967 515.16864585222 369.49095703967 516.46864585222 370.69095703967 517.56864585222 C 377.49095703967 516.66864585222 384.19095703967 515.46864585222 390.49095703967 514.16864585222 L 394.89095703967 513.26864585222 C 402.69095703967 511.66864585222 410.69095703967 510.06864585222 418.29095703967 507.76864585222 C 416.99095703967 507.26864585222 415.69095703967 506.86864585222 414.39095703967 506.36864585222 C 398.29095703967 500.46864585222 381.89095703967 494.36864585222 365.19095703967 490.26864585222 Z M 483.09095703967 501.06864585222 C 500.39095703967 507.26864585222 517.99095703967 512.76864585222 536.09095703967 514.96864585222 C 538.19095703967 513.16864585222 539.99095703967 511.06864585222 541.39095703967 508.76864585222 C 544.59095703967 503.36864585222 544.99095703967 495.06864585222 540.09095703967 490.46864585222 C 535.79095703967 486.36864585222 528.29095703967 485.56864585222 517.99095703967 487.86864585222 C 505.89095703967 490.66864585222 494.39095703967 495.66864585222 483.09095703967 501.06864585222 Z M 429.29095703967 507.76864585222 C 435.59095703967 509.96864585222 441.99095703967 512.16864585222 448.39095703967 514.16864585222 C 451.29095703967 512.86864585222 454.19095703967 511.46864585222 457.29095703967 509.96864585222 C 460.99095703967 508.16864585222 464.59095703967 506.26864585222 468.29095703967 504.36864585222 C 470.09095703967 503.46864585222 471.99095703967 502.46864585222 473.79095703967 501.56864585222 C 472.19095703967 500.96864585222 470.59095703967 500.36864585222 468.99095703967 499.76864585222 C 463.19095703967 497.66864585222 457.29095703967 495.46864585222 451.29095703967 493.36864585222 C 450.19095703967 494.56864585222 448.99095703967 495.76864585222 447.59095703967 496.96864585222 C 442.09095703967 501.66864585222 435.79095703967 505.06864585222 429.29095703967 507.76864585222 Z M 367.69095703967 487.06864585222 C 383.99095703967 491.16864585222 399.99095703967 497.06864585222 415.69095703967 502.76864585222 C 418.49095703967 503.76864585222 421.19095703967 504.76864585222 423.99095703967 505.76864585222 C 431.69095703967 502.96864585222 438.89095703967 499.36864585222 445.19095703967 494.16864585222 C 445.89095703967 493.56864585222 446.69095703967 492.86864585222 447.39095703967 492.16864585222 C 441.79095703967 490.26864585222 436.09095703967 488.46864585222 430.49095703967 486.86864585222 C 398.09095703967 477.86864585222 376.99095703967 477.86864585222 367.69095703967 487.06864585222 Z"/><path transform="matrix(1.1125388750660943 0 0 1.1125388750660943 -0.7436870223347994 -1.1591504131807708)" d="M 369.39095703967 412.06864585222 C 368.89095703967 401.86864585222 368.69095703967 391.56864585222 368.39095703967 381.36864585222 C 367.89095703967 384.76864585222 367.39095703967 388.26864585222 366.89095703967 391.66864585222 C 367.49095703967 391.66864585222 368.09095703967 391.66864585222 368.79095703967 391.66864585222 C 368.69095703967 389.86864585222 368.09095703967 368.66864585222 367.99095703967 368.66864585222 C 381.19095703967 366.46864585222 388.59095703967 353.06864585222 386.99095703967 337.66864585222 C 385.39095703967 321.36864585222 375.89095703967 299.06864585222 363.19095703967 298.66864585222 C 350.49095703967 299.06864585222 340.89095703967 321.36864585222 339.39095703967 337.66864585222 C 337.79095703967 352.96864585222 345.19095703967 366.46864585222 358.39095703967 368.66864585222 C 358.29095703967 371.66864585222 358.09095703967 376.26864585222 357.99095703967 380.56864585222 L 357.19095703967 401.86864585222 L 357.19095703967 402.66864585222 C 357.09095703967 404.96864585222 356.99095703967 407.36864585222 356.89095703967 409.66864585222 L 356.89095703967 410.46864585222 L 356.89095703967 409.66864585222 C 355.89095703967 436.26864585222 354.99095703967 425.56864585222 353.99095703967 452.16864585222 C 353.79095703967 455.36864585222 358.89095703967 459.66864585222 363.19095703967 459.56864585222 C 367.49095703967 459.56864585222 372.49095703967 455.26864585222 372.29095703967 452.06864585222 C 371.89095703967 442.56864585222 370.89095703967 433.06864585222 370.19095703967 423.56864585222 C 369.79095703967 419.86864585222 369.59095703967 415.96864585222 369.39095703967 412.06864585222 Z"/><path transform="matrix(1.1125388750660943 0 0 1.1125388750660943 -0.7436870223347994 -1.1591504131807708)" d="M 545.69095703967 298.56864585222 C 544.59095703967 298.56864585222 545.09095703967 327.16864585222 544.79095703967 346.76864585222 L 541.59095703967 346.76864585222 C 540.49095703967 327.06864585222 539.79095703967 298.46864585222 538.69095703967 298.46864585222 C 537.59095703967 298.46864585222 537.19095703967 327.06864585222 536.29095703967 346.66864585222 L 533.09095703967 346.66864585222 C 532.59095703967 326.96864585222 532.89095703967 298.36864585222 531.69095703967 298.36864585222 C 530.59095703967 298.36864585222 529.19095703967 326.96864585222 527.69095703967 346.56864585222 L 524.39095703967 346.56864585222 C 524.59095703967 326.86864585222 525.69095703967 298.36864585222 524.59095703967 298.26864585222 C 523.49095703967 298.26864585222 520.09095703967 337.16864585222 518.99095703967 347.56864585222 C 518.09095703967 356.66864585222 522.39095703967 365.96864585222 530.59095703967 368.26864585222 C 530.29095703967 375.16864585222 528.29095703967 396.36864585222 528.39095703967 396.36864585222 C 526.99095703967 425.86864585222 526.19095703967 421.66864585222 524.79095703967 451.16864585222 C 524.59095703967 454.26864585222 529.49095703967 458.46864585222 533.59095703967 458.46864585222 C 537.79095703967 458.56864585222 542.69095703967 454.36864585222 542.59095703967 451.36864585222 C 541.89095703967 421.96864585222 540.59095703967 426.16864585222 539.79095703967 396.76864585222 C 539.59095703967 389.86864585222 538.29095703967 375.16864585222 538.19095703967 368.36864585222 C 546.39095703967 366.46864585222 550.89095703967 357.96864585222 550.19095703967 347.96864585222 C 549.49095703967 337.46864585222 550.19095703967 347.96864585222 550.19095703967 347.96864585222 C 550.19095703967 347.86864585222 546.89095703967 298.56864585222 545.69095703967 298.56864585222 Z"/><path transform="matrix(1.1125388750660943 0 0 1.1125388750660943 -0.7436870223347994 -1.1591504131807708)" d="M 453.79095703967 436.46864585222 C 421.79095703967 436.46864585222 395.79095703967 410.46864585222 395.79095703967 378.46864585222 C 395.79095703967 346.46864585222 421.79095703967 320.46864585222 453.79095703967 320.46864585222 C 485.79095703967 320.46864585222 511.79095703967 346.46864585222 511.79095703967 378.46864585222 C 511.79095703967 410.46864585222 485.79095703967 436.46864585222 453.79095703967 436.46864585222 Z M 453.79095703967 324.16864585222 C 423.89095703967 324.16864585222 399.49095703967 348.56864585222 399.49095703967 378.46864585222 C 399.49095703967 408.36864585222 423.89095703967 432.76864585222 453.79095703967 432.76864585222 C 483.69095703967 432.76864585222 508.09095703967 408.36864585222 508.09095703967 378.46864585222 C 508.09095703967 348.46864585222 483.69095703967 324.16864585222 453.79095703967 324.16864585222 Z"/><path transform="matrix(1.1125388750660943 0 0 1.1125388750660943 -0.7436870223347994 -1.1591504131807708)" d="M 496.89095703967 378.46864585222 C 496.89095703967 402.27211856993 477.59442975738 421.56864585222 453.79095703967 421.56864585222 C 429.98748432196 421.56864585222 410.69095703967 402.27211856993 410.69095703967 378.46864585222 C 410.69095703967 354.66517313451 429.98748432196 335.36864585222 453.79095703967 335.36864585222 C 477.59442975738 335.36864585222 496.89095703967 354.66517313451 496.89095703967 378.46864585222 Z"/><path transform="matrix(1.1125388750660943 0 0 1.1125388750660943 -0.7436870223347994 -1.1591504131807708)" d="M 293.99095703967 345.36864585222 L 299.39095703967 362.06864585222 L 317.09095703967 362.06864585222 L 302.79095703967 372.46864585222 L 308.29095703967 389.16864585222 L 293.99095703967 378.86864585222 L 279.69095703967 389.16864585222 L 285.19095703967 372.46864585222 L 270.89095703967 362.06864585222 L 288.59095703967 362.06864585222 Z"/><path transform="matrix(1.1125388750660943 0 0 1.1125388750660943 -0.7436870223347994 -1.1591504131807708)" d="M 615.89095703967 345.36864585222 L 621.39095703967 362.06864585222 L 638.99095703967 362.06864585222 L 624.69095703967 372.46864585222 L 630.19095703967 389.16864585222 L 615.89095703967 378.86864585222 L 601.69095703967 389.16864585222 L 607.09095703967 372.46864585222 L 592.79095703967 362.06864585222 L 610.49095703967 362.06864585222 Z"/><path transform="matrix(1.1125388750660943 0 0 1.1125388750660943 -0.7436870223347994 -1.1591504131807708)" d="M 449.59095703967 179.96864585222 L 453.09095703967 190.66864585222 L 464.29095703967 190.66864585222 L 455.19095703967 197.26864585222 L 458.69095703967 207.86864585222 L 449.59095703967 201.26864585222 L 440.59095703967 207.86864585222 L 443.99095703967 197.26864585222 L 434.99095703967 190.66864585222 L 446.19095703967 190.66864585222 Z"/><path transform="matrix(1.1125388750660943 0 0 1.1125388750660943 -0.7436870223347994 -1.1591504131807708)" d="M 449.59095703967 549.56864585222 L 453.09095703967 560.16864585222 L 464.29095703967 560.16864585222 L 455.19095703967 566.76864585222 L 458.69095703967 577.36864585222 L 449.59095703967 570.76864585222 L 440.59095703967 577.36864585222 L 443.99095703967 566.76864585222 L 434.99095703967 560.16864585222 L 446.19095703967 560.16864585222 Z"/><path id="text" transform="matrix(1.0403362515384438 0 0 1.0403362515384438 -0.6827206650721037 685.3319299630774)" d="M 234.73102678571 134.68194419643 C 232.48102678571 133.79131919643 230.62165178571 132.53350669643 229.15290178571 130.90850669643 C 227.74665178571 129.37725669643 226.69196428571 127.59600669643 225.98883928571 125.56475669643 C 225.28571428571 123.53350669643 224.93415178571 121.37725669643 224.93415178571 119.09600669643 C 224.93415178571 116.56475669643 225.34040178571 113.97881919643 226.15290178571 111.33819419643 C 226.96540178571 108.69756919643 228.13727678571 106.23663169643 229.66852678571 103.95538169643 C 231.23102678571 101.58038169643 233.11383928571 99.54913169643 235.31696428571 97.86163169643 C 237.52008928571 96.17413169643 239.98102678571 94.97100669643 242.69977678571 94.25225669643 C 240.69977678571 92.81475669643 239.22321428571 91.09600669643 238.27008928571 89.09600669643 C 237.31696428571 87.09600669643 236.84040178571 84.97100669643 236.84040178571 82.72100669643 C 236.84040178571 80.25225669643 237.36383928571 77.79131919643 238.41071428571 75.33819419643 C 239.45758928571 72.88506919643 240.91852678571 70.67413169643 242.79352678571 68.70538169643 C 244.73102678571 66.64288169643 246.98883928571 65.02569419643 249.56696428571 63.85381919643 C 252.14508928571 62.68194419643 254.91852678571 62.09600669643 257.88727678571 62.09600669643 C 259.79352678571 62.09600669643 261.59040178571 62.35381919643 263.27790178571 62.86944419643 C 264.96540178571 63.38506919643 266.41852678571 64.14288169643 267.63727678571 65.14288169643 C 268.91852678571 66.17413169643 269.90290178571 67.43975669643 270.59040178571 68.93975669643 C 271.27790178571 70.43975669643 271.62165178571 72.15850669643 271.62165178571 74.09600669643 C 271.62165178571 75.50225669643 271.43415178571 76.81475669643 271.05915178571 78.03350669643 C 270.68415178571 79.25225669643 270.16852678571 80.31475669643 269.51227678571 81.22100669643 C 268.85602678571 82.12725669643 268.09040178571 82.83038169643 267.21540178571 83.33038169643 C 266.34040178571 83.83038169643 265.43415178571 84.08038169643 264.49665178571 84.08038169643 C 262.74665178571 84.08038169643 261.24665178571 83.22100669643 259.99665178571 81.50225669643 C 260.52790178571 81.31475669643 261.05915178571 80.93194419643 261.59040178571 80.35381919643 C 262.12165178571 79.77569419643 262.59040178571 79.08038169643 262.99665178571 78.26788169643 C 263.37165178571 77.48663169643 263.66852678571 76.64288169643 263.88727678571 75.73663169643 C 264.10602678571 74.83038169643 264.21540178571 73.95538169643 264.21540178571 73.11163169643 C 264.21540178571 71.29913169643 263.66852678571 69.90850669643 262.57477678571 68.93975669643 C 261.66852678571 68.15850669643 260.44977678571 67.76788169643 258.91852678571 67.76788169643 C 257.54352678571 67.76788169643 256.24665178571 68.14288169643 255.02790178571 68.89288169643 C 253.80915178571 69.64288169643 252.76227678571 70.67413169643 251.88727678571 71.98663169643 C 251.01227678571 73.26788169643 250.33258928571 74.72100669643 249.84821428571 76.34600669643 C 249.36383928571 77.97100669643 249.12165178571 79.62725669643 249.12165178571 81.31475669643 C 249.12165178571 84.34600669643 249.87165178571 86.95538169643 251.37165178571 89.14288169643 C 252.99665178571 91.58038169643 255.48102678571 93.25225669643 258.82477678571 94.15850669643 C 255.57477678571 94.87725669643 252.57477678571 96.53350669643 249.82477678571 99.12725669643 C 247.35602678571 101.50225669643 245.37165178571 104.36163169643 243.87165178571 107.70538169643 C 242.40290178571 111.04913169643 241.66852678571 114.17413169643 241.66852678571 117.08038169643 C 241.66852678571 119.98663169643 242.37165178571 122.28350669643 243.77790178571 123.97100669643 C 245.34040178571 125.84600669643 247.66852678571 126.78350669643 250.76227678571 126.78350669643 C 252.29352678571 126.78350669643 253.91071428571 126.57256919643 255.61383928571 126.15069419643 C 257.31696428571 125.72881919643 258.94977678571 125.11163169643 260.51227678571 124.29913169643 C 264.13727678571 122.45538169643 266.80915178571 120.01788169643 268.52790178571 116.98663169643 L 270.73102678571 117.97100669643 C 268.19977678571 123.50225669643 264.34040178571 127.90850669643 259.15290178571 131.18975669643 C 256.65290178571 132.75225669643 253.99665178571 133.94756919643 251.18415178571 134.77569419643 C 248.37165178571 135.60381919643 245.51227678571 136.01788169643 242.60602678571 136.01788169643 C 239.60602678571 136.01788169643 236.98102678571 135.57256919643 234.73102678571 134.68194419643 Z M 295.62165178571 130.90850669643 C 293.52790178571 128.03350669643 292.04352678571 123.78350669643 291.16852678571 118.15850669643 L 277.94977678571 134.28350669643 L 271.01227678571 134.28350669643 L 290.41852678571 112.39288169643 L 288.87165178571 101.65850669643 C 288.37165178571 98.56475669643 287.84040178571 96.42413169643 287.27790178571 95.23663169643 C 286.77790178571 94.20538169643 286.09040178571 93.68975669643 285.21540178571 93.68975669643 C 284.24665178571 93.68975669643 283.20758928571 94.17413169643 282.09821428571 95.14288169643 C 280.98883928571 96.11163169643 279.85602678571 97.54913169643 278.69977678571 99.45538169643 C 276.04352678571 103.86163169643 273.93415178571 109.73663169643 272.37165178571 117.08038169643 L 268.34040178571 117.08038169643 C 269.59040178571 111.54913169643 271.05915178571 106.73663169643 272.74665178571 102.64288169643 C 274.77790178571 97.58038169643 277.21540178571 93.61163169643 280.05915178571 90.73663169643 C 283.34040178571 87.45538169643 286.98102678571 85.81475669643 290.98102678571 85.81475669643 C 294.41852678571 85.81475669643 297.05915178571 87.09600669643 298.90290178571 89.65850669643 C 300.24665178571 91.56475669643 301.07477678571 94.08038169643 301.38727678571 97.20538169643 L 302.23102678571 104.51788169643 C 304.94977678571 101.48663169643 306.98102678571 98.86944419643 308.32477678571 96.66631919643 C 309.66852678571 94.46319419643 310.41852678571 92.47100669643 310.57477678571 90.68975669643 C 309.94977678571 90.81475669643 309.40290178571 90.87725669643 308.93415178571 90.87725669643 C 307.37165178571 90.87725669643 306.21540178571 90.34600669643 305.46540178571 89.28350669643 C 304.77790178571 88.40850669643 304.43415178571 87.15850669643 304.43415178571 85.53350669643 C 304.43415178571 84.00225669643 305.09040178571 82.78350669643 306.40290178571 81.87725669643 C 307.52790178571 81.15850669643 309.04352678571 80.79913169643 310.94977678571 80.79913169643 C 311.79352678571 80.79913169643 312.55915178571 81.04913169643 313.24665178571 81.54913169643 C 313.93415178571 82.04913169643 314.51227678571 82.72100669643 314.98102678571 83.56475669643 C 315.41852678571 84.40850669643 315.75446428571 85.35381919643 315.98883928571 86.40069419643 C 316.22321428571 87.44756919643 316.34040178571 88.50225669643 316.34040178571 89.56475669643 C 316.34040178571 91.03350669643 316.07477678571 92.51006919643 315.54352678571 93.99444419643 C 315.01227678571 95.47881919643 314.18415178571 97.03350669643 313.05915178571 98.65850669643 C 312.02790178571 100.15850669643 310.73883928571 101.79913169643 309.19196428571 103.58038169643 C 307.64508928571 105.36163169643 305.57477678571 107.65850669643 302.98102678571 110.47100669643 L 303.87165178571 117.17413169643 C 304.24665178571 120.23663169643 304.91852678571 122.42413169643 305.88727678571 123.73663169643 C 306.76227678571 124.95538169643 308.07477678571 125.56475669643 309.82477678571 125.56475669643 C 311.66852678571 125.56475669643 313.38727678571 124.76788169643 314.98102678571 123.17413169643 C 316.51227678571 121.64288169643 317.66852678571 119.61163169643 318.44977678571 117.08038169643 L 322.48102678571 117.08038169643 C 320.16852678571 123.76788169643 316.96540178571 128.59600669643 312.87165178571 131.56475669643 C 309.84040178571 133.75225669643 306.51227678571 134.84600669643 302.88727678571 134.84600669643 C 299.94977678571 134.84600669643 297.52790178571 133.53350669643 295.62165178571 130.90850669643 Z M 325.76227678571 82.72100669643 L 339.59040178571 82.72100669643 L 338.04352678571 89.93975669643 C 341.29352678571 87.18975669643 345.02790178571 85.81475669643 349.24665178571 85.81475669643 C 352.84040178571 85.81475669643 355.62165178571 86.90850669643 357.59040178571 89.09600669643 C 359.84040178571 91.65850669643 360.96540178571 95.61163169643 360.96540178571 100.95538169643 C 360.96540178571 106.11163169643 360.30915178571 110.95538169643 358.99665178571 115.48663169643 C 357.34040178571 121.26788169643 354.93415178571 125.75225669643 351.77790178571 128.93975669643 C 347.90290178571 132.87725669643 343.09040178571 134.84600669643 337.34040178571 134.84600669643 C 335.12165178571 134.84600669643 333.29352678571 134.50225669643 331.85602678571 133.81475669643 C 330.76227678571 133.31475669643 329.87165178571 132.51788169643 329.18415178571 131.42413169643 L 324.21540178571 154.81475669643 L 309.73102678571 158.28350669643 L 325.76227678571 82.72100669643 Z M 342.35602678571 121.76788169643 C 344.10602678571 119.29913169643 345.51227678571 115.83038169643 346.57477678571 111.36163169643 C 347.41852678571 107.76788169643 347.84040178571 104.20538169643 347.84040178571 100.67413169643 C 347.84040178571 97.51788169643 347.26227678571 95.26788169643 346.10602678571 93.92413169643 C 345.35602678571 93.11163169643 344.32477678571 92.70538169643 343.01227678571 92.70538169643 C 341.85602678571 92.70538169643 340.68415178571 93.11163169643 339.49665178571 93.92413169643 C 338.30915178571 94.73663169643 337.27790178571 95.90850669643 336.40290178571 97.43975669643 L 330.73102678571 124.29913169643 C 330.94977678571 124.92413169643 331.36383928571 125.44756919643 331.97321428571 125.86944419643 C 332.58258928571 126.29131919643 333.38727678571 126.50225669643 334.38727678571 126.50225669643 C 337.48102678571 126.50225669643 340.13727678571 124.92413169643 342.35602678571 121.76788169643 Z M 366.16852678571 131.28350669643 C 363.44977678571 128.75225669643 362.09040178571 124.86163169643 362.09040178571 119.61163169643 C 362.09040178571 117.64288169643 362.28571428571 115.45538169643 362.67633928571 113.04913169643 C 363.06696428571 110.64288169643 363.65290178571 108.23663169643 364.43415178571 105.83038169643 C 365.30915178571 103.14288169643 366.42633928571 100.59600669643 367.78571428571 98.18975669643 C 369.14508928571 95.78350669643 370.73102678571 93.65850669643 372.54352678571 91.81475669643 C 376.73102678571 87.56475669643 381.88727678571 85.43975669643 388.01227678571 85.43975669643 C 391.91852678571 85.43975669643 394.76227678571 86.37725669643 396.54352678571 88.25225669643 C 397.91852678571 89.72100669643 398.60602678571 91.84600669643 398.60602678571 94.62725669643 C 398.60602678571 97.34600669643 398.01227678571 99.90069419643 396.82477678571 102.29131919643 C 395.63727678571 104.68194419643 393.99665178571 106.79913169643 391.90290178571 108.64288169643 C 389.80915178571 110.45538169643 387.43415178571 111.90069419643 384.77790178571 112.97881919643 C 382.12165178571 114.05694419643 379.37165178571 114.68975669643 376.52790178571 114.87725669643 C 376.37165178571 116.50225669643 376.29352678571 117.78350669643 376.29352678571 118.72100669643 C 376.29352678571 121.84600669643 376.88727678571 124.00225669643 378.07477678571 125.18975669643 C 379.10602678571 126.25225669643 380.82477678571 126.78350669643 383.23102678571 126.78350669643 C 386.69977678571 126.78350669643 389.87165178571 125.84600669643 392.74665178571 123.97100669643 C 393.96540178571 123.18975669643 395.13727678571 122.26006919643 396.26227678571 121.18194419643 C 397.38727678571 120.10381919643 398.69977678571 118.73663169643 400.19977678571 117.08038169643 L 403.48102678571 117.08038169643 C 400.44977678571 122.20538169643 396.96540178571 126.28350669643 393.02790178571 129.31475669643 C 388.18415178571 133.00225669643 382.87165178571 134.84600669643 377.09040178571 134.84600669643 C 372.37165178571 134.84600669643 368.73102678571 133.65850669643 366.16852678571 131.28350669643 Z M 382.48102678571 108.73663169643 C 384.16852678571 107.83038169643 385.66852678571 106.64288169643 386.98102678571 105.17413169643 C 388.29352678571 103.67413169643 389.32477678571 101.99444419643 390.07477678571 100.13506919643 C 390.82477678571 98.27569419643 391.19977678571 96.37725669643 391.19977678571 94.43975669643 C 391.19977678571 93.15850669643 391.02008928571 92.18194419643 390.66071428571 91.51006919643 C 390.30133928571 90.83819419643 389.68415178571 90.50225669643 388.80915178571 90.50225669643 C 387.65290178571 90.50225669643 386.48883928571 91.06475669643 385.31696428571 92.18975669643 C 384.14508928571 93.31475669643 383.01227678571 94.86163169643 381.91852678571 96.83038169643 C 380.91852678571 98.67413169643 380.01227678571 100.76788169643 379.19977678571 103.11163169643 C 378.38727678571 105.45538169643 377.74665178571 107.84600669643 377.27790178571 110.28350669643 C 379.05915178571 110.15850669643 380.79352678571 109.64288169643 382.48102678571 108.73663169643 Z M 406.71540178571 86.28350669643 L 420.54352678571 86.28350669643 L 419.32477678571 92.23663169643 C 421.51227678571 90.29913169643 423.29352678571 88.92413169643 424.66852678571 88.11163169643 C 426.79352678571 86.89288169643 428.87165178571 86.28350669643 430.90290178571 86.28350669643 C 432.96540178571 86.28350669643 434.62165178571 87.01788169643 435.87165178571 88.48663169643 C 436.43415178571 89.14288169643 436.85602678571 89.90069419643 437.13727678571 90.76006919643 C 437.41852678571 91.61944419643 437.55915178571 92.53350669643 437.55915178571 93.50225669643 C 437.55915178571 94.37725669643 437.41852678571 95.22100669643 437.13727678571 96.03350669643 C 436.85602678571 96.84600669643 436.43415178571 97.58038169643 435.87165178571 98.23663169643 C 435.24665178571 98.92413169643 434.48883928571 99.47100669643 433.59821428571 99.87725669643 C 432.70758928571 100.28350669643 431.71540178571 100.48663169643 430.62165178571 100.48663169643 C 429.77790178571 100.48663169643 429.10602678571 100.34600669643 428.60602678571 100.06475669643 C 428.10602678571 99.78350669643 427.71540178571 99.37725669643 427.43415178571 98.84600669643 C 427.18415178571 98.31475669643 427.01227678571 97.79913169643 426.91852678571 97.29913169643 C 426.63727678571 95.95538169643 426.35602678571 95.06475669643 426.07477678571 94.62725669643 C 425.85602678571 94.31475669643 425.51227678571 94.15850669643 425.04352678571 94.15850669643 C 423.69977678571 94.15850669643 422.55915178571 94.43975669643 421.62165178571 95.00225669643 C 420.68415178571 95.56475669643 419.49665178571 96.50225669643 418.05915178571 97.81475669643 L 410.37165178571 134.28350669643 L 396.54352678571 134.28350669643 L 406.71540178571 86.28350669643 Z M 449.37165178571 80.49444419643 C 448.43415178571 80.10381919643 447.62165178571 79.56475669643 446.93415178571 78.87725669643 C 446.24665178571 78.22100669643 445.70758928571 77.42413169643 445.31696428571 76.48663169643 C 444.92633928571 75.54913169643 444.73102678571 74.56475669643 444.73102678571 73.53350669643 C 444.73102678571 72.50225669643 444.92633928571 71.51788169643 445.31696428571 70.58038169643 C 445.70758928571 69.64288169643 446.24665178571 68.81475669643 446.93415178571 68.09600669643 C 447.62165178571 67.37725669643 448.43415178571 66.82256919643 449.37165178571 66.43194419643 C 450.30915178571 66.04131919643 451.29352678571 65.84600669643 452.32477678571 65.84600669643 C 453.35602678571 65.84600669643 454.34040178571 66.04131919643 455.27790178571 66.43194419643 C 456.21540178571 66.82256919643 457.04352678571 67.37725669643 457.76227678571 68.09600669643 C 458.48102678571 68.81475669643 459.03571428571 69.64288169643 459.42633928571 70.58038169643 C 459.81696428571 71.51788169643 460.01227678571 72.50225669643 460.01227678571 73.53350669643 C 460.01227678571 74.56475669643 459.81696428571 75.54913169643 459.42633928571 76.48663169643 C 459.03571428571 77.42413169643 458.48102678571 78.22100669643 457.76227678571 78.87725669643 C 457.04352678571 79.56475669643 456.21540178571 80.10381919643 455.27790178571 80.49444419643 C 454.34040178571 80.88506919643 453.35602678571 81.08038169643 452.32477678571 81.08038169643 C 451.29352678571 81.08038169643 450.30915178571 80.88506919643 449.37165178571 80.49444419643 Z M 438.54352678571 132.12725669643 C 436.54352678571 130.12725669643 435.54352678571 127.20538169643 435.54352678571 123.36163169643 C 435.54352678571 121.54913169643 435.79352678571 119.45538169643 436.29352678571 117.08038169643 L 442.80915178571 86.28350669643 L 456.63727678571 86.28350669643 L 449.74665178571 118.90850669643 C 449.49665178571 119.72100669643 449.37165178571 120.75225669643 449.37165178571 122.00225669643 C 449.37165178571 123.31475669643 449.67633928571 124.23663169643 450.28571428571 124.76788169643 C 450.89508928571 125.29913169643 451.88727678571 125.56475669643 453.26227678571 125.56475669643 C 454.19977678571 125.56475669643 455.11383928571 125.35381919643 456.00446428571 124.93194419643 C 456.89508928571 124.51006919643 457.71540178571 123.92413169643 458.46540178571 123.17413169643 C 459.99665178571 121.64288169643 461.15290178571 119.61163169643 461.93415178571 117.08038169643 L 465.96540178571 117.08038169643 C 464.24665178571 121.92413169643 462.09040178571 125.78350669643 459.49665178571 128.65850669643 C 457.30915178571 131.00225669643 454.84040178571 132.68975669643 452.09040178571 133.72100669643 C 450.09040178571 134.47100669643 447.99665178571 134.84600669643 445.80915178571 134.84600669643 C 442.74665178571 134.84600669643 440.32477678571 133.93975669643 438.54352678571 132.12725669643 Z M 489.00446428571 132.03350669643 C 486.95758928571 130.15850669643 485.93415178571 127.45538169643 485.93415178571 123.92413169643 C 485.93415178571 122.39288169643 486.12165178571 120.72100669643 486.49665178571 118.90850669643 L 487.29352678571 115.15850669643 C 487.54352678571 114.18975669643 487.66852678571 113.01788169643 487.66852678571 111.64288169643 C 487.66852678571 110.14288169643 487.40290178571 108.99444419643 486.87165178571 108.19756919643 C 486.34040178571 107.40069419643 485.44977678571 107.00225669643 484.19977678571 107.00225669643 C 483.16852678571 107.00225669643 482.09040178571 107.29913169643 480.96540178571 107.89288169643 C 479.84040178571 108.48663169643 478.55915178571 109.37725669643 477.12165178571 110.56475669643 L 472.10602678571 134.28350669643 L 458.27790178571 134.28350669643 L 472.19977678571 68.98663169643 L 486.40290178571 67.06475669643 L 479.23102678571 100.86163169643 L 497.74665178571 86.28350669643 L 507.26227678571 86.28350669643 L 488.04352678571 99.64288169643 C 489.13727678571 99.36163169643 490.19977678571 99.22100669643 491.23102678571 99.22100669643 C 492.98102678571 99.22100669643 494.52008928571 99.51006919643 495.84821428571 100.08819419643 C 497.17633928571 100.66631919643 498.29352678571 101.48663169643 499.19977678571 102.54913169643 C 500.04352678571 103.54913169643 500.68415178571 104.72881919643 501.12165178571 106.08819419643 C 501.55915178571 107.44756919643 501.77790178571 108.90850669643 501.77790178571 110.47100669643 C 501.77790178571 111.93975669643 501.65290178571 113.15850669643 501.40290178571 114.12725669643 L 500.32477678571 118.90850669643 C 500.01227678571 119.93975669643 499.85602678571 120.97100669643 499.85602678571 122.00225669643 C 499.85602678571 123.09600669643 500.13727678571 123.96319419643 500.69977678571 124.60381919643 C 501.26227678571 125.24444419643 502.23102678571 125.56475669643 503.60602678571 125.56475669643 C 505.51227678571 125.56475669643 507.12165178571 124.78350669643 508.43415178571 123.22100669643 C 509.43415178571 122.03350669643 510.51227678571 119.98663169643 511.66852678571 117.08038169643 L 515.69977678571 117.08038169643 C 513.35602678571 124.17413169643 510.27790178571 129.14288169643 506.46540178571 131.98663169643 C 503.96540178571 133.89288169643 501.15290178571 134.84600669643 498.02790178571 134.84600669643 C 494.05915178571 134.84600669643 491.05133928571 133.90850669643 489.00446428571 132.03350669643 Z M 524.74665178571 80.49444419643 C 523.80915178571 80.10381919643 522.99665178571 79.56475669643 522.30915178571 78.87725669643 C 521.62165178571 78.22100669643 521.08258928571 77.42413169643 520.69196428571 76.48663169643 C 520.30133928571 75.54913169643 520.10602678571 74.56475669643 520.10602678571 73.53350669643 C 520.10602678571 72.50225669643 520.30133928571 71.51788169643 520.69196428571 70.58038169643 C 521.08258928571 69.64288169643 521.62165178571 68.81475669643 522.30915178571 68.09600669643 C 522.99665178571 67.37725669643 523.80915178571 66.82256919643 524.74665178571 66.43194419643 C 525.68415178571 66.04131919643 526.66852678571 65.84600669643 527.69977678571 65.84600669643 C 528.73102678571 65.84600669643 529.71540178571 66.04131919643 530.65290178571 66.43194419643 C 531.59040178571 66.82256919643 532.41852678571 67.37725669643 533.13727678571 68.09600669643 C 533.85602678571 68.81475669643 534.41071428571 69.64288169643 534.80133928571 70.58038169643 C 535.19196428571 71.51788169643 535.38727678571 72.50225669643 535.38727678571 73.53350669643 C 535.38727678571 74.56475669643 535.19196428571 75.54913169643 534.80133928571 76.48663169643 C 534.41071428571 77.42413169643 533.85602678571 78.22100669643 533.13727678571 78.87725669643 C 532.41852678571 79.56475669643 531.59040178571 80.10381919643 530.65290178571 80.49444419643 C 529.71540178571 80.88506919643 528.73102678571 81.08038169643 527.69977678571 81.08038169643 C 526.66852678571 81.08038169643 525.68415178571 80.88506919643 524.74665178571 80.49444419643 Z M 513.91852678571 132.12725669643 C 511.91852678571 130.12725669643 510.91852678571 127.20538169643 510.91852678571 123.36163169643 C 510.91852678571 121.54913169643 511.16852678571 119.45538169643 511.66852678571 117.08038169643 L 518.18415178571 86.28350669643 L 532.01227678571 86.28350669643 L 525.12165178571 118.90850669643 C 524.87165178571 119.72100669643 524.74665178571 120.75225669643 524.74665178571 122.00225669643 C 524.74665178571 123.31475669643 525.05133928571 124.23663169643 525.66071428571 124.76788169643 C 526.27008928571 125.29913169643 527.26227678571 125.56475669643 528.63727678571 125.56475669643 C 529.57477678571 125.56475669643 530.48883928571 125.35381919643 531.37946428571 124.93194419643 C 532.27008928571 124.51006919643 533.09040178571 123.92413169643 533.84040178571 123.17413169643 C 535.37165178571 121.64288169643 536.52790178571 119.61163169643 537.30915178571 117.08038169643 L 541.34040178571 117.08038169643 C 539.62165178571 121.92413169643 537.46540178571 125.78350669643 534.87165178571 128.65850669643 C 532.68415178571 131.00225669643 530.21540178571 132.68975669643 527.46540178571 133.72100669643 C 525.46540178571 134.47100669643 523.37165178571 134.84600669643 521.18415178571 134.84600669643 C 518.12165178571 134.84600669643 515.69977678571 133.93975669643 513.91852678571 132.12725669643 Z M 539.55915178571 132.12725669643 C 537.55915178571 130.12725669643 536.55915178571 127.20538169643 536.55915178571 123.36163169643 C 536.55915178571 121.54913169643 536.80915178571 119.45538169643 537.30915178571 117.08038169643 L 543.07477678571 90.12725669643 L 539.88727678571 90.12725669643 L 540.68415178571 86.28350669643 L 543.82477678571 86.28350669643 L 546.73102678571 73.01788169643 L 560.93415178571 71.09600669643 L 557.65290178571 86.28350669643 L 563.41852678571 86.28350669643 L 562.66852678571 90.12725669643 L 556.90290178571 90.12725669643 L 550.76227678571 118.90850669643 C 550.51227678571 119.72100669643 550.38727678571 120.75225669643 550.38727678571 122.00225669643 C 550.38727678571 123.31475669643 550.69196428571 124.23663169643 551.30133928571 124.76788169643 C 551.91071428571 125.29913169643 552.90290178571 125.56475669643 554.27790178571 125.56475669643 C 555.21540178571 125.56475669643 556.12946428571 125.35381919643 557.02008928571 124.93194419643 C 557.91071428571 124.51006919643 558.73102678571 123.92413169643 559.48102678571 123.17413169643 C 561.01227678571 121.64288169643 562.16852678571 119.61163169643 562.94977678571 117.08038169643 L 566.98102678571 117.08038169643 C 565.26227678571 121.92413169643 563.10602678571 125.78350669643 560.51227678571 128.65850669643 C 558.32477678571 131.00225669643 555.85602678571 132.68975669643 553.10602678571 133.72100669643 C 551.10602678571 134.47100669643 549.01227678571 134.84600669643 546.82477678571 134.84600669643 C 543.76227678571 134.84600669643 541.34040178571 133.93975669643 539.55915178571 132.12725669643 Z M 565.76227678571 131.28350669643 C 563.04352678571 128.75225669643 561.68415178571 124.86163169643 561.68415178571 119.61163169643 C 561.68415178571 117.64288169643 561.87946428571 115.44756919643 562.27008928571 113.02569419643 C 562.66071428571 110.60381919643 563.26227678571 108.18975669643 564.07477678571 105.78350669643 C 565.98102678571 99.93975669643 568.68415178571 95.28350669643 572.18415178571 91.81475669643 C 576.49665178571 87.56475669643 581.60602678571 85.43975669643 587.51227678571 85.43975669643 C 591.35602678571 85.43975669643 594.19977678571 86.36163169643 596.04352678571 88.20538169643 C 597.48102678571 89.67413169643 598.19977678571 91.68975669643 598.19977678571 94.25225669643 C 598.19977678571 96.50225669643 597.69977678571 98.25225669643 596.69977678571 99.50225669643 C 595.76227678571 100.65850669643 594.55915178571 101.23663169643 593.09040178571 101.23663169643 C 592.02790178571 101.23663169643 590.90290178571 100.86163169643 589.71540178571 100.11163169643 C 590.49665178571 98.08038169643 590.88727678571 96.18975669643 590.88727678571 94.43975669643 C 590.88727678571 93.22100669643 590.66071428571 92.26006919643 590.20758928571 91.55694419643 C 589.75446428571 90.85381919643 589.09040178571 90.50225669643 588.21540178571 90.50225669643 C 586.34040178571 90.50225669643 584.38727678571 92.15850669643 582.35602678571 95.47100669643 C 580.51227678571 98.40850669643 578.98102678571 102.14288169643 577.76227678571 106.67413169643 C 576.51227678571 111.11163169643 575.88727678571 115.12725669643 575.88727678571 118.72100669643 C 575.88727678571 121.84600669643 576.48102678571 124.00225669643 577.66852678571 125.18975669643 C 578.69977678571 126.25225669643 580.41852678571 126.78350669643 582.82477678571 126.78350669643 C 586.29352678571 126.78350669643 589.46540178571 125.84600669643 592.34040178571 123.97100669643 C 593.55915178571 123.18975669643 594.73102678571 122.26006919643 595.85602678571 121.18194419643 C 596.98102678571 120.10381919643 598.29352678571 118.73663169643 599.79352678571 117.08038169643 L 603.07477678571 117.08038169643 C 600.04352678571 122.20538169643 596.55915178571 126.28350669643 592.62165178571 129.31475669643 C 587.77790178571 133.00225669643 582.46540178571 134.84600669643 576.68415178571 134.84600669643 C 571.96540178571 134.84600669643 568.32477678571 133.65850669643 565.76227678571 131.28350669643 Z M 625.62165178571 131.47100669643 C 623.96540178571 129.53350669643 623.13727678571 127.04913169643 623.13727678571 124.01788169643 C 623.13727678571 122.58038169643 623.31696428571 120.90850669643 623.67633928571 119.00225669643 C 624.03571428571 117.09600669643 624.57477678571 114.64288169643 625.29352678571 111.64288169643 C 626.01227678571 108.58038169643 626.55133928571 106.13506919643 626.91071428571 104.30694419643 C 627.27008928571 102.47881919643 627.44977678571 100.89288169643 627.44977678571 99.54913169643 C 627.44977678571 96.26788169643 626.29352678571 94.62725669643 623.98102678571 94.62725669643 C 622.35602678571 94.62725669643 620.85602678571 95.48663169643 619.48102678571 97.20538169643 C 618.32477678571 98.67413169643 617.32477678571 100.76788169643 616.48102678571 103.48663169643 L 609.96540178571 134.28350669643 L 596.13727678571 134.28350669643 L 610.05915178571 68.98663169643 L 624.26227678571 67.06475669643 L 619.10602678571 91.25225669643 C 620.98102678571 89.15850669643 622.99665178571 87.68975669643 625.15290178571 86.84600669643 C 626.74665178571 86.22100669643 628.46540178571 85.90850669643 630.30915178571 85.90850669643 C 633.55915178571 85.90850669643 636.12165178571 86.75225669643 637.99665178571 88.43975669643 C 639.99665178571 90.28350669643 640.99665178571 93.04913169643 640.99665178571 96.73663169643 C 640.99665178571 98.95538169643 640.59040178571 101.84600669643 639.77790178571 105.40850669643 C 639.55915178571 106.43975669643 639.19977678571 107.98663169643 638.69977678571 110.04913169643 C 637.79352678571 113.51788169643 637.13727678571 116.28350669643 636.73102678571 118.34600669643 C 636.48102678571 119.65850669643 636.35602678571 120.72100669643 636.35602678571 121.53350669643 C 636.35602678571 122.81475669643 636.64508928571 123.80694419643 637.22321428571 124.51006919643 C 637.80133928571 125.21319419643 638.79352678571 125.56475669643 640.19977678571 125.56475669643 C 642.10602678571 125.56475669643 643.71540178571 124.78350669643 645.02790178571 123.22100669643 C 646.02790178571 122.03350669643 647.10602678571 119.98663169643 648.26227678571 117.08038169643 L 652.29352678571 117.08038169643 C 649.91852678571 124.11163169643 646.91852678571 129.03350669643 643.29352678571 131.84600669643 C 640.73102678571 133.84600669643 637.77790178571 134.84600669643 634.43415178571 134.84600669643 C 630.46540178571 134.84600669643 627.52790178571 133.72100669643 625.62165178571 131.47100669643 Z M 651.07477678571 131.28350669643 C 648.35602678571 128.75225669643 646.99665178571 124.86163169643 646.99665178571 119.61163169643 C 646.99665178571 117.64288169643 647.19196428571 115.45538169643 647.58258928571 113.04913169643 C 647.97321428571 110.64288169643 648.55915178571 108.23663169643 649.34040178571 105.83038169643 C 650.21540178571 103.14288169643 651.33258928571 100.59600669643 652.69196428571 98.18975669643 C 654.05133928571 95.78350669643 655.63727678571 93.65850669643 657.44977678571 91.81475669643 C 661.63727678571 87.56475669643 666.79352678571 85.43975669643 672.91852678571 85.43975669643 C 676.82477678571 85.43975669643 679.66852678571 86.37725669643 681.44977678571 88.25225669643 C 682.82477678571 89.72100669643 683.51227678571 91.84600669643 683.51227678571 94.62725669643 C 683.51227678571 97.34600669643 682.91852678571 99.90069419643 681.73102678571 102.29131919643 C 680.54352678571 104.68194419643 678.90290178571 106.79913169643 676.80915178571 108.64288169643 C 674.71540178571 110.45538169643 672.34040178571 111.90069419643 669.68415178571 112.97881919643 C 667.02790178571 114.05694419643 664.27790178571 114.68975669643 661.43415178571 114.87725669643 C 661.27790178571 116.50225669643 661.19977678571 117.78350669643 661.19977678571 118.72100669643 C 661.19977678571 121.84600669643 661.79352678571 124.00225669643 662.98102678571 125.18975669643 C 664.01227678571 126.25225669643 665.73102678571 126.78350669643 668.13727678571 126.78350669643 C 671.60602678571 126.78350669643 674.77790178571 125.84600669643 677.65290178571 123.97100669643 C 678.87165178571 123.18975669643 680.04352678571 122.26006919643 681.16852678571 121.18194419643 C 682.29352678571 120.10381919643 683.60602678571 118.73663169643 685.10602678571 117.08038169643 L 688.38727678571 117.08038169643 C 685.35602678571 122.20538169643 681.87165178571 126.28350669643 677.93415178571 129.31475669643 C 673.09040178571 133.00225669643 667.77790178571 134.84600669643 661.99665178571 134.84600669643 C 657.27790178571 134.84600669643 653.63727678571 133.65850669643 651.07477678571 131.28350669643 Z M 667.38727678571 108.73663169643 C 669.07477678571 107.83038169643 670.57477678571 106.64288169643 671.88727678571 105.17413169643 C 673.19977678571 103.67413169643 674.23102678571 101.99444419643 674.98102678571 100.13506919643 C 675.73102678571 98.27569419643 676.10602678571 96.37725669643 676.10602678571 94.43975669643 C 676.10602678571 93.15850669643 675.92633928571 92.18194419643 675.56696428571 91.51006919643 C 675.20758928571 90.83819419643 674.59040178571 90.50225669643 673.71540178571 90.50225669643 C 672.55915178571 90.50225669643 671.39508928571 91.06475669643 670.22321428571 92.18975669643 C 669.05133928571 93.31475669643 667.91852678571 94.86163169643 666.82477678571 96.83038169643 C 665.82477678571 98.67413169643 664.91852678571 100.76788169643 664.10602678571 103.11163169643 C 663.29352678571 105.45538169643 662.65290178571 107.84600669643 662.18415178571 110.28350669643 C 663.96540178571 110.15850669643 665.69977678571 109.64288169643 667.38727678571 108.73663169643 Z M 710.93415178571 131.47100669643 C 709.27790178571 129.53350669643 708.44977678571 127.04913169643 708.44977678571 124.01788169643 C 708.44977678571 122.58038169643 708.62946428571 120.90850669643 708.98883928571 119.00225669643 C 709.34821428571 117.09600669643 709.88727678571 114.64288169643 710.60602678571 111.64288169643 C 711.32477678571 108.58038169643 711.86383928571 106.13506919643 712.22321428571 104.30694419643 C 712.58258928571 102.47881919643 712.76227678571 100.89288169643 712.76227678571 99.54913169643 C 712.76227678571 96.26788169643 711.60602678571 94.62725669643 709.29352678571 94.62725669643 C 707.66852678571 94.62725669643 706.16852678571 95.48663169643 704.79352678571 97.20538169643 C 703.63727678571 98.67413169643 702.63727678571 100.76788169643 701.79352678571 103.48663169643 L 695.27790178571 134.28350669643 L 681.44977678571 134.28350669643 L 691.62165178571 86.28350669643 L 705.44977678571 86.28350669643 L 704.41852678571 91.25225669643 C 706.29352678571 89.15850669643 708.30915178571 87.68975669643 710.46540178571 86.84600669643 C 712.05915178571 86.22100669643 713.77790178571 85.90850669643 715.62165178571 85.90850669643 C 718.87165178571 85.90850669643 721.43415178571 86.75225669643 723.30915178571 88.43975669643 C 725.30915178571 90.28350669643 726.30915178571 93.04913169643 726.30915178571 96.73663169643 C 726.30915178571 98.95538169643 725.90290178571 101.84600669643 725.09040178571 105.40850669643 C 724.87165178571 106.43975669643 724.51227678571 107.98663169643 724.01227678571 110.04913169643 C 723.10602678571 113.51788169643 722.44977678571 116.28350669643 722.04352678571 118.34600669643 C 721.79352678571 119.65850669643 721.66852678571 120.72100669643 721.66852678571 121.53350669643 C 721.66852678571 122.81475669643 721.95758928571 123.80694419643 722.53571428571 124.51006919643 C 723.11383928571 125.21319419643 724.10602678571 125.56475669643 725.51227678571 125.56475669643 C 727.41852678571 125.56475669643 729.02790178571 124.78350669643 730.34040178571 123.22100669643 C 731.34040178571 122.03350669643 732.41852678571 119.98663169643 733.57477678571 117.08038169643 L 737.60602678571 117.08038169643 C 735.23102678571 124.11163169643 732.23102678571 129.03350669643 728.60602678571 131.84600669643 C 726.04352678571 133.84600669643 723.09040178571 134.84600669643 719.74665178571 134.84600669643 C 715.77790178571 134.84600669643 712.84040178571 133.72100669643 710.93415178571 131.47100669643 Z"/></svg>